# Blender v2.79 (sub 0) OBJ File: 'arrow.blend'
# www.blender.org
mtllib arrow.mtl
o Arrow_Cylinder.001
v -5.393416 -0.723966 -0.030730
v 2.990472 -0.723967 -0.030729
v -5.393416 -0.712437 0.086325
v 2.990472 -0.712438 0.086325
v -5.393416 -0.678294 0.198881
v 2.990472 -0.678294 0.198881
v -5.393416 -0.622848 0.302613
v 2.990472 -0.622848 0.302613
v -5.393416 -0.548230 0.393535
v 2.990472 -0.548231 0.393535
v -5.393416 -0.457308 0.468152
v 2.990472 -0.457309 0.468153
v -5.393416 -0.353576 0.523598
v 2.990472 -0.353577 0.523599
v -5.393416 -0.241020 0.557742
v 2.990472 -0.241021 0.557742
v -5.393416 -0.123966 0.569270
v 2.990472 -0.123967 0.569271
v -5.393416 -0.006912 0.557742
v 2.990472 -0.006912 0.557742
v -5.393416 0.105644 0.523598
v 2.990472 0.105643 0.523599
v -5.393416 0.209376 0.468152
v 2.990472 0.209376 0.468153
v -5.393416 0.300298 0.393535
v 2.990472 0.300298 0.393535
v -5.393416 0.374916 0.302613
v 2.990472 0.374915 0.302613
v -5.393416 0.430362 0.198880
v 2.990472 0.430361 0.198881
v -5.393416 0.464505 0.086324
v 2.990472 0.464505 0.086325
v -5.393416 0.476034 -0.030730
v 2.990472 0.476034 -0.030729
v -5.393416 0.464505 -0.147784
v 2.990472 0.464505 -0.147784
v -5.393416 0.430361 -0.260340
v 2.990472 0.430361 -0.260340
v -5.393416 0.374915 -0.364072
v 2.990472 0.374915 -0.364072
v -5.393416 0.300298 -0.454994
v 2.990472 0.300297 -0.454994
v -5.393416 0.209376 -0.529612
v 2.990472 0.209375 -0.529611
v -5.393416 0.105643 -0.585057
v 2.990472 0.105643 -0.585057
v -5.393416 -0.006912 -0.619201
v 2.990472 -0.006913 -0.619201
v -5.393416 -0.123967 -0.630730
v 2.990472 -0.123967 -0.630729
v -5.393416 -0.241021 -0.619201
v 2.990472 -0.241021 -0.619200
v -5.393416 -0.353577 -0.585057
v 2.990472 -0.353577 -0.585057
v -5.393416 -0.457309 -0.529611
v 2.990472 -0.457309 -0.529611
v -5.393416 -0.548231 -0.454993
v 2.990472 -0.548231 -0.454993
v -5.393416 -0.622848 -0.364071
v 2.990472 -0.622849 -0.364071
v -5.393416 -0.678294 -0.260339
v 2.990472 -0.678295 -0.260338
v -5.393416 -0.712438 -0.147783
v 2.990472 -0.712438 -0.147782
v -3.160796 -0.723966 -0.030729
v -3.160796 -0.712437 0.086325
v -3.160796 -0.678294 0.198881
v -3.160796 -0.622848 0.302613
v -3.160796 -0.548230 0.393535
v -3.160796 -0.457308 0.468152
v -3.160796 -0.353576 0.523598
v -3.160796 -0.241020 0.557742
v -3.160796 -0.123966 0.569271
v -3.160796 -0.006912 0.557742
v -3.160796 0.105644 0.523598
v -3.160796 0.209376 0.468152
v -3.160796 0.300298 0.393535
v -3.160796 0.374916 0.302613
v -3.160796 0.430362 0.198881
v -3.160796 0.464505 0.086325
v -3.160796 0.476034 -0.030730
v -3.160796 0.464505 -0.147784
v -3.160796 0.430361 -0.260340
v -3.160796 0.374915 -0.364072
v -3.160796 0.300298 -0.454994
v -3.160796 0.209376 -0.529612
v -3.160796 0.105643 -0.585057
v -3.160796 -0.006913 -0.619201
v -3.160796 -0.123967 -0.630729
v -3.160796 -0.241021 -0.619201
v -3.160796 -0.353577 -0.585057
v -3.160796 -0.457309 -0.529611
v -3.160796 -0.548231 -0.454993
v -3.160796 -0.622848 -0.364071
v -3.160796 -0.678294 -0.260339
v -3.160796 -0.712438 -0.147783
v -5.393415 -0.537264 0.967060
v -5.393415 -0.334664 1.028518
v -5.393415 0.935282 0.179968
v -5.393415 0.956034 -0.030730
v -5.393415 -0.537265 -1.028519
v -5.393415 -0.723983 -0.928716
v 3.040304 0.420109 0.723959
v 3.065437 0.719863 -0.331208
v 2.943257 -0.123967 -0.963652
v 2.929128 -0.956034 -0.278700
v 2.943077 -0.671628 0.724529
v 3.876486 0.676332 0.212344
v 3.756444 0.362176 -0.646663
v 3.804206 -0.573201 -0.760271
v 3.790568 -0.850058 0.275177
v 3.845576 -0.128092 0.846552
v 5.393415 -0.121222 -0.029635
v 2.616431 0.422931 -0.208265
v 2.616370 0.212941 0.438323
v 3.135793 0.656500 0.228459
v 2.864736 -0.123967 0.847670
v 2.539818 -0.463879 0.437126
v 2.539820 -0.123966 -0.609032
v 2.864555 0.392270 -0.741136
v 2.539412 -0.672369 -0.208262
v 2.864628 -0.639853 -0.741060
v 2.853748 -0.916290 0.272336
v 3.396413 0.181939 0.907416
v 3.390472 -0.432979 0.920329
v 3.526969 0.785340 -0.059020
v 3.498216 0.647464 0.530790
v 3.353916 0.170425 -0.934600
v 3.374865 0.638576 -0.582477
v 3.354998 -0.839238 -0.596329
v 3.390302 -0.433047 -0.981567
v 3.380625 -0.894366 0.585401
v 3.335482 -0.953692 0.047628
v 3.937075 0.365652 0.617311
v 3.909765 0.627882 -0.261604
v 3.883250 -0.137120 -0.833656
v 3.831080 -0.720803 -0.282522
v 3.918207 -0.623941 0.657477
v 4.671885 0.375851 0.130978
v 4.671874 -0.124146 0.494252
v 4.699162 0.211801 -0.442678
v 4.758867 -0.346840 -0.423324
v 4.699013 -0.593644 0.142208
vt 0.904110 0.714848
vt 0.898039 0.982803
vt 0.883398 0.982801
vt 0.877757 0.714844
vt 0.921445 0.271588
vt 0.863208 0.012062
vt 0.921445 0.000000
vt 0.028589 0.268409
vt 0.036610 0.995777
vt 0.023092 0.996489
vt 0.015072 0.269120
vt 0.010931 0.997446
vt 0.002911 0.270078
vt 0.266712 0.269196
vt 0.266712 1.000000
vt 0.256397 0.999527
vt 0.256397 0.268722
vt 0.244253 0.999154
vt 0.244253 0.268350
vt 0.230747 0.998897
vt 0.230747 0.268092
vt 0.216398 0.998764
vt 0.216398 0.267960
vt 0.201757 0.998762
vt 0.201757 0.267957
vt 0.187388 0.998890
vt 0.187388 0.268085
vt 0.173841 0.999143
vt 0.173841 0.268338
vt 0.161639 0.999511
vt 0.161639 0.268707
vt 0.151249 0.999981
vt 0.151249 0.269177
vt 0.466567 0.267701
vt 0.466567 0.998992
vt 0.454603 0.998744
vt 0.454603 0.267453
vt 0.441222 0.998570
vt 0.441222 0.267279
vt 0.426940 0.998476
vt 0.426940 0.267184
vt 0.412303 0.998465
vt 0.412303 0.267173
vt 0.397876 0.998538
vt 0.397876 0.267247
vt 0.397876 0.288949
vt 0.384213 0.998692
vt 0.384213 0.289104
vt 0.371838 0.998922
vt 0.371838 0.289333
vt 0.371838 0.287719
vt 0.371838 0.995925
vt 0.359676 0.995391
vt 0.359676 0.287184
vt 0.346157 0.995022
vt 0.346157 0.286815
vt 0.331801 0.994833
vt 0.331801 0.286627
vt 0.317160 0.994832
vt 0.317160 0.286625
vt 0.302797 0.995018
vt 0.302797 0.286811
vt 0.289263 0.995384
vt 0.289263 0.287178
vt 0.277079 0.995917
vt 0.277079 0.287711
vt 0.266712 0.996596
vt 0.266712 0.288389
vt 0.108032 0.270078
vt 0.116053 0.997446
vt 0.105685 0.996489
vt 0.097665 0.269120
vt 0.093501 0.995777
vt 0.085480 0.268409
vt 0.079967 0.995339
vt 0.071946 0.267971
vt 0.065604 0.995191
vt 0.057583 0.267823
vt 0.533572 0.799434
vt 0.519213 0.796704
vt 0.505687 0.791351
vt 0.493513 0.783578
vt 0.483161 0.773686
vt 0.475027 0.762054
vt 0.469424 0.749129
vt 0.466568 0.735408
vt 0.466568 0.721418
vt 0.469424 0.707697
vt 0.475027 0.694772
vt 0.483161 0.683140
vt 0.493513 0.673247
vt 0.505687 0.665475
vt 0.519213 0.660121
vt 0.533572 0.657392
vt 0.548213 0.657392
vt 0.562573 0.660121
vt 0.576099 0.665475
vt 0.588273 0.673247
vt 0.598625 0.683140
vt 0.606759 0.694772
vt 0.612362 0.707697
vt 0.615218 0.721418
vt 0.615218 0.735408
vt 0.612362 0.749129
vt 0.606759 0.762054
vt 0.598625 0.773686
vt 0.588273 0.783578
vt 0.576099 0.791351
vt 0.562573 0.796704
vt 0.548213 0.799434
vt 0.050964 0.995339
vt 0.042943 0.267971
vt 0.114548 0.953114
vt 0.103231 0.944238
vt 0.093943 0.933424
vt 0.087041 0.921086
vt 0.082791 0.907699
vt 0.081356 0.893776
vt 0.082791 0.879854
vt 0.087041 0.866466
vt 0.093943 0.854128
vt 0.103231 0.843314
vt 0.114548 0.834439
vt 0.127460 0.827844
vt 0.141471 0.823783
vt 0.156041 0.822412
vt 0.170611 0.823783
vt 0.184622 0.827844
vt 0.197534 0.834439
vt 0.208851 0.843314
vt 0.218139 0.854128
vt 0.225041 0.866466
vt 0.229291 0.879854
vt 0.230726 0.893776
vt 0.229291 0.907699
vt 0.225041 0.921086
vt 0.218139 0.933424
vt 0.208851 0.944238
vt 0.197534 0.953114
vt 0.184622 0.959708
vt 0.170611 0.963769
vt 0.156041 0.965141
vt 0.141471 0.963769
vt 0.127460 0.959708
vt 0.071036 0.710860
vt 0.073947 0.974861
vt 0.059593 0.975299
vt 0.056682 0.711298
vt 0.085676 0.710712
vt 0.088587 0.974713
vt 0.100039 0.710860
vt 0.102950 0.974861
vt 0.113573 0.711298
vt 0.116484 0.975299
vt 0.125758 0.712009
vt 0.128669 0.976010
vt 0.060051 0.667670
vt 0.060051 0.932592
vt 0.049685 0.933271
vt 0.049685 0.668348
vt 0.072236 0.667137
vt 0.072236 0.932060
vt 0.085770 0.666771
vt 0.085770 0.931693
vt 0.100133 0.666584
vt 0.100133 0.931507
vt 0.114774 0.666586
vt 0.114774 0.931508
vt 0.129129 0.666774
vt 0.129129 0.931697
vt 0.142648 0.667143
vt 0.142648 0.932066
vt 0.154811 0.667678
vt 0.154811 0.932601
vt 0.167186 0.668561
vt 0.167186 0.933985
vt 0.154811 0.934215
vt 0.154811 0.668791
vt 0.180849 0.668407
vt 0.180849 0.933831
vt 0.352530 0.671445
vt 0.352530 0.936869
vt 0.337894 0.936858
vt 0.337894 0.671434
vt 0.366813 0.671539
vt 0.366813 0.936963
vt 0.380194 0.671714
vt 0.380194 0.937138
vt 0.392158 0.671961
vt 0.392158 0.937386
vt 0.087229 0.673144
vt 0.087229 0.938391
vt 0.076839 0.938861
vt 0.076839 0.673614
vt 0.099432 0.672775
vt 0.099432 0.938023
vt 0.112978 0.672522
vt 0.112978 0.937770
vt 0.127348 0.672395
vt 0.127348 0.937642
vt 0.986285 0.675033
vt 0.986285 0.940457
vt 0.939158 0.676111
vt 0.261751 0.709734
vt 0.261751 0.974982
vt 0.247402 0.974849
vt 0.247402 0.709602
vt 0.275257 0.709992
vt 0.275257 0.975239
vt 0.287401 0.710364
vt 0.287401 0.975612
vt 0.297716 0.710837
vt 0.297716 0.976085
vt 0.043165 0.712009
vt 0.046076 0.976010
vt 0.033915 0.976967
vt 0.031004 0.712967
vt 0.957351 0.714813
vt 0.914134 0.983168
vt 0.903767 0.982211
vt 0.938689 0.713090
vt 0.947011 0.705078
vt 0.951366 0.972251
vt 0.936939 0.972325
vt 0.921043 0.705210
vt 0.939158 0.946516
vt 0.887702 0.686196
vt 0.939158 0.675033
vt 0.817102 0.184610
vt 0.830014 0.178015
vt 0.863208 0.225485
vt 0.839966 0.237356
vt 0.921445 0.265245
vt 0.922700 0.000000
vt 0.980926 0.265245
vt 0.829696 0.933165
vt 0.887702 0.675033
vt 0.887702 0.945678
vt 0.830014 0.059341
vt 0.817102 0.052746
vt 0.839966 0.000000
vt 0.863208 0.011871
vt 0.719521 0.091368
vt 0.715271 0.104755
vt 0.656671 0.093618
vt 0.664321 0.069520
vt 0.703830 0.677210
vt 0.703830 0.942458
vt 0.657782 0.940723
vt 0.770506 0.677210
vt 0.806015 0.701911
vt 0.754988 0.741897
vt 0.829696 0.407926
vt 0.886115 0.377367
vt 0.857528 0.445388
vt 0.622536 0.285908
vt 0.555990 0.265901
vt 0.602963 0.227124
vt 0.786433 0.633015
vt 0.716255 0.639172
vt 0.755103 0.583544
vt 0.540405 0.373563
vt 0.600862 0.346520
vt 0.598135 0.407224
vt 0.956459 0.376694
vt 1.000000 0.361948
vt 0.995605 0.424146
vt 0.487737 0.264962
vt 0.495864 0.231139
vt 0.534085 0.197877
vt 0.656671 0.254017
vt 0.824400 0.580768
vt 0.521774 0.432605
vt 0.929353 0.433530
vt 0.575376 0.179834
vt 0.519001 0.161777
vt 0.593503 0.085717
vt 0.719975 0.532582
vt 0.669433 0.510031
vt 0.730894 0.419065
vt 0.829696 0.529717
vt 0.786547 0.520334
vt 0.791568 0.412772
vt 0.520020 0.492796
vt 0.588315 0.473422
vt 0.583286 0.587852
vt 0.904332 0.492589
vt 0.970857 0.492213
vt 0.931507 0.589941
vt 1.000000 0.584765
vt 0.963116 0.675033
vt 0.491905 0.523189
vt 0.657782 0.570239
vt 0.650006 0.657392
vt 0.645609 0.449974
vt 0.748112 0.333182
vt 0.656671 0.092489
vt 0.613044 0.000000
vt 0.630586 0.184979
vt 0.534639 0.073826
vt 0.856138 0.512398
vt 0.466568 0.460553
vt 0.683347 0.576658
vt 0.528226 0.217409
vt 0.490005 0.199889
vt 0.477842 0.388706
vt 0.657781 0.394515
vt 0.829696 0.640971
vt 0.657782 0.610624
vt 0.802269 0.807346
vt 0.754988 0.842539
vt 0.766665 0.782413
vt 0.802269 0.888015
vt 0.526887 0.333182
vt 0.754988 0.677210
vt 0.754988 0.757999
vt 0.713131 0.717724
vt 0.719349 0.782886
vt 0.763182 0.677210
vt 0.707917 0.237356
vt 0.707917 0.318000
vt 0.656671 0.277596
vt 0.588329 0.333182
vt 0.655955 0.314559
vt 0.935115 0.333182
vt 0.806015 0.782413
vt 0.505236 0.318311
vn 0.2092 -0.2839 0.9358
vn 0.0000 0.9808 0.1951
vn -0.0000 -0.9952 0.0980
vn -0.0000 -0.9569 0.2903
vn -0.0000 -0.8819 0.4714
vn -0.0000 -0.7730 0.6344
vn -0.0000 -0.6344 0.7730
vn -0.0000 -0.4714 0.8819
vn -0.0000 -0.2903 0.9569
vn -0.0000 -0.0980 0.9952
vn -0.0000 0.0980 0.9952
vn -0.0000 0.2903 0.9569
vn -0.0000 0.4714 0.8819
vn -0.0000 0.6344 0.7730
vn 0.0000 0.7730 0.6344
vn 0.0000 0.8819 0.4714
vn 0.0000 0.9569 0.2903
vn 0.0000 0.9952 0.0980
vn 0.0000 0.9952 -0.0980
vn 0.0000 0.9569 -0.2903
vn 0.0000 0.8819 -0.4714
vn 0.0000 0.7730 -0.6344
vn 0.0000 0.6344 -0.7730
vn 0.0000 0.4714 -0.8819
vn 0.0000 0.2903 -0.9569
vn 0.0000 0.0980 -0.9952
vn 0.0000 -0.0980 -0.9952
vn 0.0000 -0.2903 -0.9569
vn 0.0000 -0.4714 -0.8819
vn 0.0000 -0.6344 -0.7730
vn -0.0000 -0.7730 -0.6344
vn -0.0000 -0.8819 -0.4714
vn 1.0000 0.0000 0.0000
vn -0.0000 -0.9569 -0.2903
vn -0.0000 -0.9952 -0.0980
vn -1.0000 0.0000 0.0000
vn 0.0000 0.9239 -0.3827
vn 0.2092 -0.4610 -0.8624
vn 0.2092 0.9732 0.0958
vn 0.0000 -0.0000 -1.0000
vn -0.0000 -0.1951 0.9808
vn -0.0000 -0.9239 -0.3827
vn -0.0000 -0.8315 0.5556
vn -0.6359 0.3604 0.6824
vn -0.2733 0.2963 0.9152
vn -0.2178 0.9664 0.1368
vn -0.1957 0.3629 -0.9111
vn -0.1759 -0.8238 -0.5388
vn -0.2620 -0.8262 0.4988
vn 0.0176 0.6265 0.7792
vn 0.0272 0.9604 -0.2772
vn 0.0143 0.0784 -0.9968
vn 0.1414 -0.9754 -0.1691
vn -0.0413 -0.5864 0.8090
vn 0.3455 0.7688 0.5381
vn 0.2523 0.7466 -0.6156
vn 0.3705 -0.2191 -0.9026
vn 0.2384 -0.9498 -0.2028
vn 0.3775 -0.2811 0.8823
vn 0.5113 -0.4964 0.7015
vn 0.4890 -0.5050 0.7112
vn 0.3028 -0.8612 0.4083
vn 0.4822 -0.8205 -0.3070
vn 0.3029 -0.8848 -0.3541
vn 0.3181 -0.9006 -0.2961
vn 0.5203 0.0260 -0.8536
vn 0.4271 0.0143 -0.9041
vn 0.2540 0.3951 -0.8828
vn 0.5221 0.8262 -0.2115
vn 0.4112 0.8814 -0.2325
vn 0.3461 0.9355 -0.0713
vn 0.5050 0.5073 0.6983
vn 0.4664 0.5199 0.7156
vn 0.3683 0.3345 0.8675
vn 0.3400 -0.2912 0.8942
vn 0.1853 -0.5799 0.7934
vn 0.3758 -0.8472 0.3756
vn 0.3088 -0.9313 -0.1934
vn 0.3336 -0.9299 -0.1552
vn 0.4069 -0.8661 -0.2905
vn 0.4001 -0.2222 -0.8891
vn 0.2365 0.0896 -0.9675
vn 0.3943 0.4084 -0.8232
vn 0.3874 0.6795 -0.6231
vn 0.2105 0.9237 -0.3201
vn 0.3470 0.9352 -0.0712
vn 0.3841 0.7594 0.5251
vn 0.2209 0.5838 0.7813
vn 0.3525 0.3395 0.8720
vn 0.1765 -0.9799 0.0933
vn -0.0250 -0.9934 0.1117
vn -0.0468 -0.9968 0.0655
vn 0.1475 -0.6873 -0.7112
vn -0.0635 -0.6838 -0.7269
vn -0.2747 -0.3453 -0.8974
vn 0.2819 0.5686 -0.7728
vn -0.0425 0.6018 -0.7975
vn -0.2243 0.8119 -0.5389
vn 0.1213 0.9652 0.2315
vn -0.1574 0.9633 0.2175
vn -0.2845 0.8854 0.3676
vn 0.1474 0.0193 0.9889
vn -0.1242 0.0220 0.9920
vn -0.2743 -0.2481 0.9291
vn -0.6429 -0.6133 0.4588
vn -0.7706 -0.6063 0.1963
vn -0.5910 -0.8063 -0.0227
vn -0.5855 -0.7049 -0.4004
vn -0.7844 -0.3656 -0.5011
vn -0.6443 -0.2181 -0.7330
vn -0.6444 0.2177 -0.7331
vn -0.8173 0.4107 -0.4042
vn -0.5820 0.7500 -0.3142
vn -0.6448 -0.2543 0.7208
vn -0.8163 0.0913 0.5704
vn -0.5136 0.8430 0.1600
vn -0.5665 0.7838 0.2545
vn -0.5618 0.7835 0.2655
usemtl Material.001
s off
f 97/1/1 71/2/1 72/3/1 98/4/1
f 72/5/2 15/6/2 98/7/2
usemtl Material.001_NONE
f 65/8/3 2/9/3 4/10/3 66/11/3
f 66/11/4 4/10/4 6/12/4 67/13/4
f 67/14/5 6/15/5 8/16/5 68/17/5
f 68/17/6 8/16/6 10/18/6 69/19/6
f 69/19/7 10/18/7 12/20/7 70/21/7
f 70/21/8 12/20/8 14/22/8 71/23/8
f 71/23/9 14/22/9 16/24/9 72/25/9
f 72/25/10 16/24/10 18/26/10 73/27/10
f 73/27/11 18/26/11 20/28/11 74/29/11
f 74/29/12 20/28/12 22/30/12 75/31/12
f 75/31/13 22/30/13 24/32/13 76/33/13
f 76/34/14 24/35/14 26/36/14 77/37/14
f 77/37/15 26/36/15 28/38/15 78/39/15
f 78/39/16 28/38/16 30/40/16 79/41/16
f 79/41/17 30/40/17 32/42/17 80/43/17
f 80/43/18 32/42/18 34/44/18 81/45/18
f 81/46/19 34/44/19 36/47/19 82/48/19
f 82/48/20 36/47/20 38/49/20 83/50/20
f 83/51/21 38/52/21 40/53/21 84/54/21
f 84/54/22 40/53/22 42/55/22 85/56/22
f 85/56/23 42/55/23 44/57/23 86/58/23
f 86/58/24 44/57/24 46/59/24 87/60/24
f 87/60/25 46/59/25 48/61/25 88/62/25
f 88/62/26 48/61/26 50/63/26 89/64/26
f 89/64/27 50/63/27 52/65/27 90/66/27
f 90/66/28 52/65/28 54/67/28 91/68/28
f 91/69/29 54/70/29 56/71/29 92/72/29
f 92/72/30 56/71/30 58/73/30 93/74/30
f 93/74/31 58/73/31 60/75/31 94/76/31
f 94/76/32 60/75/32 62/77/32 95/78/32
f 4/79/33 2/80/33 64/81/33 62/82/33 60/83/33 58/84/33 56/85/33 54/86/33 52/87/33 50/88/33 48/89/33 46/90/33 44/91/33 42/92/33 40/93/33 38/94/33 36/95/33 34/96/33 32/97/33 30/98/33 28/99/33 26/100/33 24/101/33 22/102/33 20/103/33 18/104/33 16/105/33 14/106/33 12/107/33 10/108/33 8/109/33 6/110/33
f 95/78/34 62/77/34 64/111/34 96/112/34
f 96/112/35 64/111/35 2/9/35 65/8/35
f 1/113/36 3/114/36 5/115/36 7/116/36 9/117/36 11/118/36 13/119/36 15/120/36 17/121/36 19/122/36 21/123/36 23/124/36 25/125/36 27/126/36 29/127/36 31/128/36 33/129/36 35/130/36 37/131/36 39/132/36 41/133/36 43/134/36 45/135/36 47/136/36 49/137/36 51/138/36 53/139/36 55/140/36 57/141/36 59/142/36 61/143/36 63/144/36
f 63/145/35 96/146/35 65/147/35 1/148/35
f 61/149/34 95/150/34 96/146/34 63/145/34
f 59/151/32 94/152/32 95/150/32 61/149/32
f 57/153/31 93/154/31 94/152/31 59/151/31
f 55/155/30 92/156/30 93/154/30 57/153/30
f 51/157/28 90/158/28 91/159/28 53/160/28
f 49/161/27 89/162/27 90/158/27 51/157/27
f 47/163/26 88/164/26 89/162/26 49/161/26
f 45/165/25 87/166/25 88/164/25 47/163/25
f 43/167/24 86/168/24 87/166/24 45/165/24
f 41/169/23 85/170/23 86/168/23 43/167/23
f 39/171/22 84/172/22 85/170/22 41/169/22
f 37/173/21 83/174/21 84/172/21 39/171/21
f 35/175/20 82/176/20 83/177/20 37/178/20
f 33/179/19 81/180/19 82/176/19 35/175/19
f 29/181/17 79/182/17 80/183/17 31/184/17
f 27/185/16 78/186/16 79/182/16 29/181/16
f 25/187/15 77/188/15 78/186/15 27/185/15
f 23/189/14 76/190/14 77/188/14 25/187/14
f 21/191/13 75/192/13 76/193/13 23/194/13
f 19/195/12 74/196/12 75/192/12 21/191/12
f 17/197/11 73/198/11 74/196/11 19/195/11
f 15/199/10 72/200/10 73/198/10 17/197/10
f 53/201/37 91/202/37 101/203/37
f 11/204/8 70/205/8 71/206/8 13/207/8
f 9/208/7 69/209/7 70/205/7 11/204/7
f 7/210/6 68/211/6 69/209/6 9/208/6
f 5/212/5 67/213/5 68/211/5 7/210/5
f 3/214/4 66/215/4 67/216/4 5/217/4
f 1/148/3 65/147/3 66/215/3 3/214/3
f 101/218/38 91/219/38 92/220/38 102/221/38
f 99/222/39 80/223/39 81/224/39 100/225/39
f 81/226/40 33/227/40 100/228/40
f 55/229/36 53/230/36 101/231/36 102/232/36
f 31/233/41 80/234/41 99/235/41
f 13/236/42 71/237/42 97/238/42
f 33/239/36 31/240/36 99/241/36 100/242/36
f 15/243/36 13/244/36 97/245/36 98/246/36
f 92/247/43 55/248/43 102/249/43
f 103/250/44 115/251/44 117/252/44
f 103/253/45 117/254/45 124/255/45
f 104/256/46 116/257/46 126/258/46
f 105/259/47 120/260/47 128/261/47
f 106/262/48 122/263/48 130/264/48
f 107/265/49 123/266/49 132/267/49
f 103/268/50 124/269/50 127/270/50
f 104/256/51 126/258/51 129/271/51
f 105/259/52 128/261/52 131/272/52
f 106/262/53 130/264/53 133/273/53
f 107/265/54 132/267/54 125/274/54
f 108/275/55 134/276/55 139/277/55
f 109/278/56 135/279/56 141/280/56
f 110/281/57 136/282/57 142/283/57
f 111/284/58 137/285/58 143/286/58
f 112/287/59 138/288/59 140/289/59
f 140/289/60 143/290/60 113/291/60
f 140/289/61 138/288/61 143/290/61
f 138/292/62 111/284/62 143/286/62
f 143/286/63 142/293/63 113/294/63
f 143/286/64 137/285/64 142/293/64
f 137/285/65 110/295/65 142/293/65
f 142/283/66 141/280/66 113/296/66
f 142/283/67 136/282/67 141/280/67
f 136/282/68 109/278/68 141/280/68
f 141/297/69 139/277/69 113/298/69
f 141/297/70 135/299/70 139/277/70
f 135/299/71 108/275/71 139/277/71
f 139/277/72 140/300/72 113/298/72
f 139/277/73 134/276/73 140/300/73
f 134/301/74 112/287/74 140/289/74
f 125/274/75 138/288/75 112/287/75
f 125/274/76 132/267/76 138/288/76
f 132/302/77 111/284/77 138/292/77
f 133/273/78 137/285/78 111/284/78
f 133/273/79 130/264/79 137/285/79
f 130/264/80 110/295/80 137/285/80
f 131/272/81 136/282/81 110/281/81
f 131/272/82 128/261/82 136/282/82
f 128/261/83 109/278/83 136/282/83
f 129/303/84 135/279/84 109/278/84
f 129/271/85 126/258/85 135/299/85
f 126/258/86 108/275/86 135/299/86
f 127/304/87 134/276/87 108/275/87
f 127/304/88 124/305/88 134/276/88
f 124/255/89 112/287/89 134/301/89
f 132/302/90 133/273/90 111/284/90
f 132/302/91 123/306/91 133/273/91
f 123/306/92 106/262/92 133/273/92
f 130/264/93 131/307/93 110/295/93
f 130/264/94 122/263/94 131/307/94
f 122/308/95 105/259/95 131/272/95
f 128/261/96 129/303/96 109/278/96
f 128/261/97 120/260/97 129/303/97
f 120/260/98 104/309/98 129/303/98
f 126/258/99 127/304/99 108/275/99
f 126/258/100 116/257/100 127/304/100
f 116/257/101 103/268/101 127/304/101
f 124/255/102 125/274/102 112/287/102
f 124/255/103 117/254/103 125/274/103
f 117/254/104 107/265/104 125/274/104
f 118/310/105 123/311/105 107/312/105
f 118/310/106 121/313/106 123/311/106
f 121/314/107 106/262/107 123/306/107
f 121/314/108 122/263/108 106/262/108
f 121/315/109 119/316/109 122/317/109
f 119/316/110 105/318/110 122/317/110
f 119/319/111 120/260/111 105/259/111
f 119/320/112 114/321/112 120/322/112
f 114/323/113 104/256/113 120/324/113
f 117/254/114 118/325/114 107/265/114
f 117/252/115 115/251/115 118/326/115
f 114/323/116 116/257/116 104/256/116
f 114/323/117 115/327/117 116/257/117
f 115/327/118 103/268/118 116/257/118
