# Blender v2.78 (sub 0) OBJ File: ''
# www.blender.org
mtllib arrow.mtl
o Cube
v -1.731944 -0.500000 -0.500000
v -1.731944 -0.500000 0.500000
v -9.231945 -0.500000 0.500000
v -9.231944 -0.500000 -0.500000
v -1.731944 0.500000 -0.500000
v -1.731945 0.500000 0.500000
v -9.231945 0.500000 0.500000
v -9.231944 0.500000 -0.500000
v 0.268054 0.000000 0.000000
vt 0.5000 0.1875
vt 0.7500 0.1875
vt 0.7500 0.7891
vt 0.5000 0.7891
vt 0.0000 0.6016
vt 0.0000 0.0000
vt 0.2500 0.0000
vt 0.2500 0.6016
vt 0.1250 0.7891
vt 1.0000 0.6016
vt 0.7500 0.6016
vt 0.7500 0.0000
vt 1.0000 0.0000
vt 0.0000 0.7891
vt 0.2500 0.7891
vt 0.2500 1.0000
vt 0.0000 1.0000
vt 0.2500 0.1875
vt 0.2500 0.7891
vt 0.8750 0.7891
vt 0.3750 0.0000
vt 0.6250 0.0000
vn 0.0000 -1.0000 0.0000
vn 0.0000 1.0000 -0.0000
vn 0.2425 0.9701 0.0000
vn -0.0000 -0.0000 1.0000
vn -1.0000 -0.0000 -0.0000
vn 0.0000 0.0000 -1.0000
vn 0.2425 0.0000 0.9701
vn 0.2425 0.0000 -0.9701
vn 0.2425 -0.9701 0.0000
usemtl Material
s off
f 1/1/1 2/2/1 3/3/1 4/4/1
f 5/5/2 8/6/2 7/7/2 6/8/2
f 5/5/3 6/8/3 9/9/3
f 2/10/4 6/11/4 7/12/4 3/13/4
f 3/14/5 7/15/5 8/16/5 4/17/5
f 5/18/6 1/1/6 4/4/6 8/19/6
f 6/11/7 2/10/7 9/20/7
f 1/1/8 5/18/8 9/21/8
f 2/2/9 1/1/9 9/22/9
